<?xml version="1.0" standalone="no"?>
<!DOCTYPE svg PUBLIC "-//W3C//DTD SVG 20010904//EN"
 "http://www.w3.org/TR/2001/REC-SVG-20010904/DTD/svg10.dtd">
<svg version="1.0" xmlns="http://www.w3.org/2000/svg"
 width="1800.000000pt" height="563.000000pt" viewBox="0 0 1800.000000 563.000000"
 preserveAspectRatio="xMidYMid meet">

<g transform="translate(0.000000,563.000000) scale(0.100000,-0.100000)"
fill="#000000" stroke="none">
<path d="M452 3633 c-6 -29 -9 -59 -6 -67 3 -8 -9 -51 -27 -95 -26 -64 -39
-83 -66 -98 -36 -19 -40 -27 -20 -40 8 -5 -2 -12 -28 -20 -39 -13 -38 -13 38
-9 42 1 77 0 77 -5 0 -4 -23 -23 -50 -43 -28 -20 -48 -41 -45 -46 3 -6 26 -10
51 -10 24 0 44 -3 44 -7 -1 -38 -73 -64 -174 -64 l-81 0 33 -18 c31 -16 32
-18 17 -31 -10 -8 -37 -15 -61 -15 -24 -1 -46 -4 -50 -7 -14 -14 19 -48 56
-58 47 -13 51 -27 13 -36 -92 -22 -53 -65 50 -56 31 2 60 8 63 13 12 19 34 8
34 -17 0 -66 -155 -144 -287 -144 -44 0 -35 -15 14 -25 l38 -8 -27 -9 c-49
-17 -33 -31 29 -25 31 3 77 2 102 -3 25 -5 74 -5 108 -1 l62 7 -14 -25 c-17
-33 -51 -64 -92 -85 -45 -22 -149 -46 -205 -46 l-48 0 0 -35 c0 -34 1 -35 43
-35 42 0 76 -13 60 -23 -4 -3 -25 -8 -46 -12 -42 -8 -47 -19 -16 -35 15 -9 42
-8 107 3 49 9 104 12 127 8 l39 -6 -39 -43 c-47 -52 -62 -61 -144 -81 -59 -15
-95 -40 -79 -57 12 -11 125 -5 168 10 l41 14 -17 -26 c-16 -24 -16 -25 2 -18
44 18 74 24 74 15 0 -5 -7 -12 -15 -15 -22 -9 -18 -24 6 -24 34 0 11 -19 -31
-26 -22 -4 -37 -10 -34 -15 3 -5 -6 -9 -20 -9 -30 0 -33 -8 -10 -25 26 -19
-75 -58 -153 -59 l-63 -1 0 -82 c0 -58 4 -83 12 -83 9 0 9 -3 0 -12 -7 -7 -12
-25 -12 -40 0 -25 2 -27 19 -18 11 5 30 10 43 10 13 0 41 7 63 15 63 23 69 20
44 -21 l-22 -37 57 5 c58 5 58 5 35 -13 -13 -10 -44 -29 -68 -41 -24 -13 -55
-33 -69 -45 -14 -13 -29 -23 -34 -23 -5 0 -22 -10 -38 -22 -21 -15 -30 -30
-30 -50 0 -15 2 -28 5 -28 2 0 30 11 61 25 32 14 59 23 62 20 3 -3 3 -6 1 -8
-2 -2 -22 -17 -44 -34 -22 -17 -49 -32 -60 -34 -20 -4 -20 -13 -23 -767 l-2
-762 9000 0 9000 0 0 1351 c0 1345 0 1351 -20 1328 -10 -13 -19 -19 -20 -12 0
8 -7 8 -29 0 -33 -12 -63 -4 -55 16 3 8 -2 20 -11 27 -26 22 -16 30 15 12 27
-15 31 -16 45 -1 14 14 12 18 -25 48 -47 38 -51 50 -12 44 27 -4 27 -4 7 14
-11 10 -29 28 -39 41 -19 22 -19 23 2 38 29 20 28 30 -5 46 -40 20 -52 44 -29
61 18 13 18 14 -3 29 -15 11 -25 34 -33 78 -12 64 -26 61 -27 -6 -1 -37 -27
-104 -41 -104 -5 0 -8 -12 -7 -27 1 -18 -5 -30 -18 -37 -44 -24 -47 -27 -34
-42 6 -8 21 -14 32 -14 19 0 19 -2 -8 -30 -16 -17 -36 -30 -46 -30 -9 0 -22
-7 -29 -15 -7 -8 -19 -15 -26 -15 -8 0 -14 -4 -14 -9 0 -13 25 -20 49 -14 30
8 26 -10 -11 -46 l-31 -31 32 10 c38 11 57 24 88 59 17 19 23 22 23 10 0 -18
-47 -86 -75 -109 -17 -14 -17 -15 10 -20 l29 -5 -44 -29 c-23 -15 -63 -31 -89
-35 -45 -8 -45 -8 -16 -16 26 -7 27 -9 10 -16 -51 -20 -144 -1 -181 36 -15 15
-24 36 -24 56 0 30 2 31 35 27 40 -5 42 -2 18 24 -9 10 -11 18 -5 18 6 0 13 9
17 20 3 11 9 19 13 18 19 -5 91 14 102 27 8 10 9 15 2 15 -6 0 -9 6 -6 14 3 8
-6 21 -24 31 -16 10 -39 35 -53 56 -13 21 -29 41 -36 43 -18 7 -16 36 3 36 23
0 10 53 -32 122 -19 31 -34 68 -34 83 0 15 -4 44 -10 64 -5 20 -12 50 -16 66
l-7 30 -8 -40 c-4 -22 -8 -63 -8 -92 -1 -34 -11 -73 -31 -118 -34 -76 -36 -82
-16 -66 12 10 15 7 14 -18 -1 -21 -13 -41 -40 -67 -33 -34 -38 -44 -38 -85 0
-43 -2 -47 -27 -54 -16 -4 -22 -10 -16 -12 29 -10 10 -23 -33 -23 -40 0 -45 2
-34 15 10 12 9 15 -4 15 -9 0 -28 12 -43 26 l-25 25 33 18 c38 20 49 41 22 41
-10 0 -24 9 -31 20 -8 13 -8 20 -1 20 6 0 7 5 2 13 -4 6 -9 21 -10 32 -5 45
-16 85 -23 85 -11 0 -30 -104 -23 -129 4 -16 -1 -23 -22 -31 -14 -5 -37 -10
-49 -10 -13 0 -29 -7 -36 -15 -10 -12 -10 -15 4 -15 19 0 21 -11 4 -29 -11
-11 -9 -13 7 -8 11 2 28 8 38 12 29 12 19 -9 -17 -33 -43 -29 -66 -21 -66 24
0 32 -2 34 -36 34 -21 0 -33 4 -29 10 3 6 -3 10 -13 10 -24 0 -48 25 -32 35
19 12 11 35 -13 35 -25 0 -47 17 -47 36 0 7 16 18 35 24 58 19 55 77 -6 103
-42 17 -79 108 -79 197 0 73 -9 140 -19 140 -15 0 -51 -140 -55 -212 -2 -43
-11 -90 -20 -105 -8 -15 -17 -41 -21 -56 -3 -17 -18 -35 -35 -45 -33 -19 -38
-46 -16 -77 22 -33 -8 -72 -84 -109 -78 -38 -94 -60 -63 -85 20 -17 20 -19 5
-35 -22 -21 -4 -21 59 1 39 14 51 15 61 5 10 -10 -2 -26 -62 -82 -48 -45 -83
-70 -98 -70 -27 0 -59 -15 -88 -42 -27 -24 -46 -16 -73 33 -13 22 -29 43 -37
46 -18 7 -18 21 0 39 18 18 8 57 -32 123 -16 26 -32 67 -35 92 -3 24 -11 69
-18 99 -12 52 -14 53 -20 25 -4 -16 -7 -59 -8 -95 -1 -50 -8 -80 -31 -128 -33
-70 -38 -91 -16 -73 11 9 13 6 12 -18 -1 -33 -41 -82 -60 -75 -7 3 -18 -2 -25
-10 -21 -25 -77 -31 -106 -12 -27 18 -33 36 -11 36 8 0 13 8 12 17 0 10 8 19
22 22 28 7 28 18 -1 51 -12 14 -23 36 -23 50 -1 14 -7 41 -14 60 -7 19 -15 42
-18 50 -5 14 -17 -36 -25 -100 -2 -14 -10 -36 -17 -50 -7 -14 -16 -32 -20 -40
-4 -8 -17 -17 -30 -18 -18 -3 -20 -6 -9 -13 10 -6 10 -9 2 -9 -21 0 -14 -17 9
-23 21 -6 21 -7 5 -25 -16 -17 -16 -20 -3 -25 10 -4 20 2 27 14 6 11 13 18 16
16 7 -8 -16 -48 -44 -78 -23 -25 -24 -28 -7 -37 16 -9 17 -14 5 -38 -10 -22
-14 -25 -21 -14 -7 12 -12 12 -22 2 -6 -6 -25 -12 -41 -12 -23 0 -28 4 -23 16
4 9 1 23 -5 31 -17 19 -5 27 19 12 16 -10 22 -9 34 2 13 12 9 19 -31 56 l-46
43 35 -7 35 -6 -37 35 c-41 38 -47 55 -23 64 24 10 18 41 -9 48 -26 6 -47 47
-27 54 15 5 14 29 -2 39 -18 10 -37 67 -38 112 l-1 36 -8 -30 c-5 -16 -12 -48
-17 -70 -6 -33 -12 -40 -31 -40 -36 0 -67 88 -76 217 -8 108 -19 142 -31 88
-4 -17 -13 -43 -21 -58 -8 -15 -14 -55 -14 -90 0 -34 -8 -88 -19 -120 -10 -31
-21 -69 -25 -83 -3 -16 -20 -35 -41 -48 -36 -21 -38 -37 -8 -72 23 -27 -12
-74 -78 -104 -31 -14 -62 -32 -69 -40 -17 -20 -23 -19 -39 8 -12 18 -39 231
-41 311 0 35 -19 3 -22 -39 -3 -37 -5 -40 -37 -43 -37 -4 -81 28 -81 60 0 10
-4 18 -10 18 -16 0 -12 27 6 34 19 7 10 23 -28 46 -30 18 -30 18 -9 29 25 14
29 62 6 81 -8 7 -15 28 -15 46 0 19 -4 42 -9 52 -6 9 -13 40 -17 67 l-8 50 -8
-55 c-5 -30 -14 -68 -19 -85 -6 -16 -14 -49 -18 -72 -4 -23 -15 -53 -24 -67
-22 -33 -21 -51 3 -67 17 -11 19 -20 14 -46 -7 -35 -45 -65 -96 -77 -32 -7
-38 9 -7 19 16 5 39 40 39 61 0 2 -15 -5 -32 -16 -43 -26 -83 -25 -110 2 -20
20 -21 23 -5 26 9 2 17 9 17 16 0 7 12 18 26 25 l27 12 -23 24 c-12 13 -24 38
-26 55 -2 17 -11 41 -19 53 -8 12 -15 34 -15 50 0 15 -4 26 -9 23 -8 -5 -16
-43 -24 -113 -1 -12 -8 -28 -14 -35 -7 -6 -13 -22 -13 -35 0 -16 -7 -24 -25
-29 -41 -10 -52 1 -61 58 -4 29 -9 44 -11 33 -14 -78 -21 -82 -46 -30 -9 19
-21 35 -27 35 -13 0 -13 37 1 46 16 9 3 51 -33 109 -18 28 -35 72 -39 100 -4
28 -13 73 -20 100 -12 49 -13 49 -20 20 -4 -16 -7 -57 -8 -90 -1 -44 -9 -77
-31 -123 -33 -71 -38 -91 -16 -73 12 10 15 7 14 -18 -1 -21 -13 -41 -40 -67
-29 -29 -38 -46 -38 -71 0 -20 -5 -33 -12 -33 -22 0 -123 66 -123 79 0 7 16
21 35 30 32 15 35 20 35 61 0 43 -1 45 -35 50 -51 9 -60 17 -60 55 0 33 1 34
26 24 27 -10 64 -4 64 11 0 4 -10 10 -22 14 -23 6 -23 6 4 23 33 21 44 43 21
43 -33 0 -80 39 -91 77 -14 47 -32 158 -33 204 -1 56 -17 4 -18 -59 -1 -30 -7
-66 -15 -80 -8 -15 -22 -46 -32 -70 -11 -28 -28 -49 -48 -59 -41 -21 -41 -20
-26 -38 11 -13 8 -16 -19 -21 -49 -10 -25 -27 28 -19 25 3 54 8 64 11 33 10
17 -16 -33 -52 -60 -43 -55 -66 10 -57 22 3 40 2 40 -1 0 -44 -97 -81 -192
-74 -32 2 -58 3 -58 1 0 -2 14 -9 30 -14 35 -13 38 -25 10 -34 -14 -4 -27 2
-45 22 -33 38 -31 50 9 67 18 8 36 19 40 24 12 20 -14 63 -48 77 -53 22 -70
89 -85 328 -2 32 -17 17 -35 -35 -10 -29 -21 -93 -26 -143 -5 -56 -16 -107
-29 -135 -11 -25 -21 -53 -21 -62 0 -9 -16 -26 -35 -38 -41 -25 -42 -29 -15
-63 20 -25 20 -25 0 -59 -14 -24 -33 -39 -69 -52 -28 -10 -55 -24 -62 -32 -12
-15 -41 -19 -52 -7 -4 3 2 12 13 20 11 8 20 22 20 32 0 13 -6 17 -27 14 -16
-3 -37 2 -48 11 -20 14 -20 15 -1 29 21 16 16 47 -8 47 -7 0 -16 7 -20 15 -4
10 1 15 15 15 11 0 18 4 14 9 -3 5 0 13 7 17 8 5 4 10 -10 15 -12 5 -24 20
-27 36 -17 80 -18 81 -26 33 -6 -28 -19 -53 -36 -70 l-28 -25 28 -3 28 -3 -23
-19 -23 -19 25 -1 c24 -1 24 -1 6 -15 -11 -8 -33 -15 -49 -15 -16 0 -26 -4
-22 -10 3 -6 1 -11 -4 -11 -26 -3 -30 -4 -37 -12 -5 -4 2 -10 14 -14 25 -6 30
-23 6 -23 -8 0 -12 -5 -8 -11 3 -6 22 -9 40 -7 49 6 44 -18 -8 -42 -24 -11
-51 -20 -60 -20 -12 0 -15 -5 -11 -16 3 -8 12 -13 20 -10 20 8 103 -5 103 -16
0 -16 -84 -48 -130 -48 -42 -1 -44 -2 -26 -15 11 -8 29 -16 40 -16 17 -1 18
-2 4 -6 -34 -9 -19 -26 17 -20 43 7 45 -6 5 -43 -31 -29 -30 -40 3 -40 19 0
20 -1 2 -20 -17 -19 -17 -20 -1 -20 9 0 14 -4 11 -10 -7 -11 -48 -14 -58 -4
-3 3 -2 17 3 29 7 19 5 25 -10 30 -21 7 -39 58 -41 115 -1 32 -2 30 -16 -20
-7 -30 -15 -68 -16 -85 -2 -26 -7 -30 -34 -33 -23 -2 -30 -7 -26 -18 3 -8 0
-14 -6 -14 -19 0 -91 40 -91 50 0 6 -9 10 -20 10 -29 0 -25 11 15 43 31 24 35
33 35 72 0 41 -2 45 -25 45 -48 0 -75 20 -75 57 0 36 2 38 31 23 13 -8 25 -7
41 1 l21 12 -22 11 c-21 12 -21 12 9 35 l31 22 -50 25 c-27 14 -52 33 -56 42
-10 25 -35 182 -35 222 -1 30 -2 32 -11 16 -6 -10 -11 -41 -11 -69 0 -70 -55
-190 -97 -215 -31 -17 -40 -32 -21 -32 25 0 6 -19 -27 -28 -37 -10 -36 -10 25
-11 70 -1 82 -18 35 -48 -47 -30 -52 -53 -12 -53 19 0 19 -1 5 -16 -10 -10
-24 -13 -38 -9 -20 5 -21 4 -7 -7 25 -20 -1 -38 -54 -38 -55 0 -78 21 -53 48
21 25 20 35 -6 47 -28 13 -48 46 -30 52 17 7 15 17 -13 59 -18 26 -25 50 -25
82 0 60 -6 51 -24 -37 -9 -41 -22 -82 -31 -91 -9 -9 -13 -24 -9 -33 4 -12 -5
-23 -31 -38 -23 -14 -34 -27 -31 -36 3 -8 6 -17 6 -19 0 -2 12 -1 28 2 l27 7
-25 -28 c-14 -15 -38 -34 -55 -42 -63 -30 -73 -38 -61 -49 8 -7 21 -8 35 -2
13 5 26 6 29 4 7 -8 -26 -54 -48 -66 -16 -8 -21 -6 -32 12 -7 13 -13 32 -14
43 -2 11 -11 45 -22 75 l-19 55 -7 -37 c-3 -21 -9 -54 -12 -73 -3 -19 -12 -40
-20 -46 -8 -6 -14 -22 -14 -35 0 -18 -8 -26 -32 -33 -18 -5 -28 -10 -21 -10 7
-1 10 -7 7 -15 -3 -8 4 -16 17 -19 22 -6 22 -7 6 -25 -25 -28 -7 -36 21 -10
l25 23 -13 -25 c-7 -14 -26 -40 -43 -58 -31 -32 -31 -33 -9 -39 12 -3 22 -9
22 -13 0 -13 -39 -56 -40 -43 0 8 -7 8 -29 0 -33 -12 -63 -4 -55 16 3 8 -2 20
-11 27 -8 7 -15 19 -15 27 0 10 8 8 29 -8 27 -20 31 -20 46 -6 14 15 14 18 -9
32 -14 9 -32 28 -42 43 -12 19 -13 23 -3 15 9 -7 20 -8 28 -4 11 7 9 11 -5 19
-18 10 -18 12 6 38 l25 27 -39 -7 -39 -8 17 27 c18 27 14 45 -9 45 -8 0 -22
11 -31 25 -16 24 -16 27 2 40 19 15 19 15 -1 31 -20 15 -20 15 1 32 12 9 36
25 53 34 42 23 39 38 -8 38 -44 0 -91 31 -91 61 0 12 -7 19 -18 19 -18 0 -42
18 -42 31 0 4 9 5 20 2 11 -3 27 -2 36 1 15 6 14 9 -6 31 -13 14 -29 25 -37
25 -19 0 -16 13 7 28 23 14 26 54 6 71 -8 7 -16 31 -19 54 -3 23 -11 69 -18
102 -11 51 -14 56 -20 35 -4 -14 -7 -41 -8 -60 -1 -19 -8 -48 -17 -65 -9 -16
-16 -43 -16 -60 1 -16 -8 -44 -19 -61 -24 -40 -24 -65 1 -71 15 -4 20 -14 20
-39 0 -28 -6 -38 -32 -54 -30 -18 -54 -18 -43 0 3 4 0 32 -7 60 l-12 53 -13
-54 c-8 -30 -15 -61 -16 -69 -3 -20 -76 -40 -101 -27 -15 7 -23 4 -38 -14 -44
-56 -44 -64 4 -60 10 1 26 -2 35 -8 10 -6 12 -11 6 -11 -7 0 -13 -7 -13 -16 0
-8 -14 -20 -30 -26 -44 -15 -31 -33 20 -31 42 2 45 -10 5 -20 -11 -3 -2 -5 20
-6 26 -1 35 -4 27 -10 -11 -6 -10 -10 5 -15 16 -7 16 -9 -7 -21 -14 -7 -44
-16 -66 -20 -49 -8 -65 7 -39 35 16 18 15 19 -25 18 -23 0 -47 5 -53 11 -8 8
-7 11 4 11 7 0 25 10 39 21 14 11 20 18 14 15 -31 -16 -124 33 -124 65 0 5 24
9 54 9 30 0 58 5 61 10 4 6 -6 10 -24 10 -38 0 -46 13 -21 35 30 27 26 49 -6
41 -17 -5 -35 -1 -52 10 -22 14 -23 18 -9 26 23 13 21 45 -3 51 -23 6 -27 27
-6 27 22 0 26 35 5 48 -12 8 -21 30 -26 64 l-7 53 -8 -44 c-4 -24 -16 -54 -26
-65 -37 -40 -38 -50 -6 -42 l29 6 -22 -19 c-26 -22 -30 -36 -8 -28 8 4 17 2
19 -2 7 -10 -38 -31 -65 -31 -11 0 -17 -5 -14 -10 3 -5 -4 -10 -15 -10 -17 0
-20 4 -15 18 5 9 10 32 13 50 5 37 -5 40 -69 21 -35 -11 -42 -9 -100 23 -34
19 -64 39 -67 46 -2 6 15 20 37 32 39 19 41 23 41 65 0 41 -2 45 -24 45 -14 0
-36 4 -50 10 -21 8 -26 16 -26 45 0 38 2 40 31 25 13 -8 25 -7 41 1 l21 12
-22 12 -23 12 26 17 c14 9 26 20 26 24 0 4 -18 15 -40 25 -22 10 -45 28 -51
38 -12 23 -38 178 -39 229 -1 30 -2 32 -11 17 -6 -10 -11 -40 -11 -65 0 -86
-66 -215 -119 -235 -11 -4 -12 -7 -1 -18 10 -11 7 -16 -20 -26 -31 -12 -28
-13 40 -9 39 2 72 -1 72 -5 0 -5 -19 -21 -42 -36 -72 -46 -72 -63 -3 -63 38 0
42 -2 38 -19 -8 -31 -78 -53 -168 -53 l-80 1 33 -18 c30 -15 32 -19 17 -31 -8
-7 -38 -15 -65 -18 -28 -2 -50 -7 -50 -11 1 -18 32 -43 64 -52 20 -5 36 -14
36 -18 0 -4 -18 -15 -40 -24 -45 -17 -51 -32 -18 -43 29 -10 130 -5 142 7 20
18 28 8 23 -28 -6 -40 -26 -60 -93 -93 -51 -25 -148 -43 -196 -37 -54 7 -47
-8 10 -23 43 -11 45 -13 25 -23 -42 -19 -25 -30 35 -23 61 7 122 -1 122 -15 0
-5 -9 -9 -20 -9 -25 0 -26 -15 -3 -30 13 -8 14 -13 5 -16 -26 -11 -11 -26 23
-22 55 6 43 -19 -17 -37 -29 -9 -79 -19 -110 -22 l-56 -6 -11 39 c-6 22 -11
53 -12 69 0 26 -2 27 -9 10 -5 -11 -12 -41 -15 -67 -6 -45 -8 -48 -35 -48
l-28 0 16 -41 c17 -45 14 -50 -44 -85 -23 -14 -10 -34 23 -34 26 0 26 0 7 -21
-27 -30 -73 -52 -115 -55 -28 -2 -42 2 -58 20 -22 23 -22 25 -6 49 20 31 16
77 -7 88 -10 5 -26 13 -35 17 -35 16 -61 91 -70 201 -9 112 -26 144 -38 69
-11 -70 -45 -191 -61 -216 -8 -12 -12 -27 -9 -32 3 -5 -5 -16 -17 -25 -21 -16
-21 -17 -3 -12 11 2 28 8 38 12 13 6 17 2 17 -18 0 -13 -7 -30 -15 -37 -21
-18 -127 -25 -154 -10 -20 10 -22 9 -19 -7 1 -10 22 -27 46 -38 32 -15 41 -25
38 -39 -3 -11 0 -28 6 -39 8 -17 5 -24 -20 -43 -16 -13 -33 -36 -37 -51 -10
-42 -27 -7 -20 42 5 29 3 36 -4 25 -6 -8 -11 -25 -11 -37 0 -29 -37 -51 -43
-25 -4 14 -5 13 -6 -4 -2 -34 -23 -53 -48 -44 -47 19 -67 95 -23 88 9 -2 24 3
33 11 18 14 24 36 7 26 -5 -3 -10 -1 -10 4 0 6 -7 11 -15 11 -8 0 -19 9 -25
19 -13 25 -13 31 3 31 19 1 65 40 46 40 -22 0 -61 47 -46 54 9 5 9 7 -1 12 -6
3 -9 10 -6 15 3 6 0 33 -7 62 l-12 52 -12 -50 c-7 -27 -16 -58 -20 -68 -4 -10
-3 -17 4 -17 6 0 11 -7 11 -15 0 -16 -30 -35 -55 -35 -13 0 -12 5 6 29 29 39
20 65 -17 50 -23 -8 -35 -6 -70 13 l-42 22 38 17 c58 26 116 84 123 121 4 18
9 44 13 58 7 24 6 24 -31 -9 -57 -49 -116 -72 -189 -73 -92 -2 -123 14 -132
65 -5 34 -8 38 -15 22 -7 -17 -8 -16 -8 8 -1 25 2 27 36 27 34 0 36 1 21 16
-25 26 -2 64 40 64 42 0 100 29 82 40 -7 4 -10 13 -6 19 4 6 -7 19 -25 30 -17
10 -40 34 -51 52 -11 19 -27 38 -34 42 -18 10 -18 33 0 40 20 8 6 62 -29 116
-16 23 -32 64 -36 89 -4 26 -14 72 -21 102 -11 52 -13 53 -19 25 -4 -16 -7
-57 -8 -90 -1 -47 -9 -77 -37 -135 -19 -41 -30 -69 -23 -62 46 45 32 -39 -14
-86 -32 -33 -37 -44 -37 -84 0 -41 -3 -47 -27 -56 -16 -6 -22 -11 -15 -11 6
-1 12 -5 12 -11 0 -13 -65 -13 -108 -1 -18 6 -32 6 -32 1 0 -12 70 -59 90 -62
8 -1 -10 -4 -40 -7 l-55 -6 45 -22 c25 -12 58 -25 74 -28 l29 -6 -51 -52 c-54
-55 -66 -75 -33 -57 26 14 31 13 31 -6 0 -24 51 20 100 85 22 30 40 51 40 47
0 -5 -18 -46 -40 -93 -33 -71 -53 -98 -116 -158 l-76 -72 31 -7 c17 -3 45 -9
61 -12 17 -4 30 -8 30 -10 0 -16 -40 -85 -64 -111 -37 -41 -48 -42 -33 -3 16
42 4 46 -39 14 -31 -24 -47 -29 -93 -29 -31 0 -65 3 -75 8 -18 7 -18 8 3 30
28 31 27 38 -17 68 -25 17 -42 40 -54 72 -17 47 -8 65 12 26 18 -32 114 -89
152 -89 l33 1 -25 14 c-23 13 -23 14 -5 15 11 0 31 7 43 16 28 19 20 32 -41
68 -38 22 -157 145 -157 161 0 4 11 0 25 -9 18 -12 42 -16 81 -14 l55 3 -51
33 c-48 31 -140 135 -140 157 0 6 18 20 40 33 60 34 69 102 13 102 -29 0 -93
38 -93 56 0 6 -9 23 -20 37 -28 35 -25 53 10 61 55 11 53 71 -4 98 -19 9 -37
27 -41 40 -4 13 -12 37 -20 53 -7 17 -16 77 -20 135 -4 58 -10 109 -13 114
-11 18 -44 -100 -52 -184 -4 -51 -16 -105 -29 -134 -11 -27 -21 -57 -21 -66 0
-10 -16 -28 -35 -40 -19 -12 -35 -24 -35 -26 0 -11 23 -49 34 -56 7 -4 4 -13
-7 -26 -9 -10 -17 -23 -17 -29 0 -6 -24 -21 -52 -33 -89 -37 -120 -78 -77
-100 20 -11 20 -12 3 -31 -21 -23 -7 -25 43 -4 38 16 83 20 83 8 -1 -13 -42
-58 -98 -107 -36 -32 -62 -46 -81 -46 -19 0 -45 -14 -74 -38 -25 -20 -66 -43
-91 -51 -36 -10 -46 -18 -46 -34 0 -27 -22 -87 -32 -87 -4 0 -12 -10 -19 -21
-10 -20 -9 -21 10 -16 24 6 29 -11 6 -19 -22 -9 -18 -24 6 -24 34 0 11 -19
-31 -26 -22 -4 -37 -10 -34 -15 3 -5 -6 -9 -20 -9 -31 0 -35 -20 -6 -27 19 -5
19 -6 3 -19 -17 -12 -17 -13 0 -19 9 -4 28 -4 42 -1 15 4 25 2 25 -4 0 -18
-63 -50 -98 -50 -28 0 -31 -2 -21 -17 8 -13 24 -18 57 -18 67 1 76 -4 57 -25
-17 -19 -101 -44 -126 -38 -29 6 -17 -18 14 -29 21 -7 25 -12 13 -12 -11 -1
-16 -4 -12 -8 4 -4 26 -7 49 -6 38 1 39 1 12 -6 l-30 -8 24 -10 c26 -10 21
-17 -21 -27 -16 -3 -28 -11 -28 -17 0 -13 97 -4 115 11 10 8 15 8 20 -1 9 -13
-36 -54 -82 -75 -43 -19 -107 -19 -100 0 3 8 -1 17 -9 20 -9 4 -14 21 -15 53
0 42 -1 45 -10 23 -10 -24 -11 -24 -22 -5 -6 11 -12 29 -14 40 -2 26 -41 134
-42 118 -1 -20 -25 -15 -45 8 -13 16 -15 24 -6 29 8 5 9 10 2 14 -6 4 -9 12
-7 19 3 7 -1 34 -8 62 l-13 49 -18 -62 c-13 -47 -15 -67 -6 -77 17 -20 -12
-43 -65 -51 -29 -4 -45 -11 -45 -21 0 -8 4 -12 9 -8 5 3 12 1 16 -5 3 -6 -1
-13 -9 -16 -9 -3 -16 -10 -16 -14 0 -10 40 -1 57 12 7 5 14 5 17 -1 4 -5 -2
-12 -13 -16 -11 -3 -22 -12 -25 -20 -8 -21 -56 -20 -56 1 0 9 -9 23 -21 33
-15 12 -23 34 -28 76 -7 58 -8 59 -19 32 -7 -16 -12 -37 -12 -48 0 -13 -7 -19
-23 -19 -35 0 -39 10 -17 38 23 29 18 44 -14 36 -14 -3 -31 2 -47 15 -22 17
-22 20 -6 26 23 10 22 41 -3 48 -24 6 -27 27 -4 27 8 0 13 4 9 9 -3 5 -1 12 4
16 5 3 -1 16 -15 30 -16 17 -24 35 -24 60 0 23 -4 34 -11 30 -6 -4 -8 -12 -6
-19 4 -11 -10 -44 -41 -96 -13 -20 -12 -21 7 -15 24 7 29 -10 6 -19 -8 -3 -15
-10 -15 -15 0 -6 7 -8 15 -5 16 7 21 -11 5 -21 -5 -3 -25 -6 -44 -7 -19 -1
-33 -5 -30 -10 10 -16 -13 -8 -47 17 -52 39 -54 55 -33 280 7 73 -3 67 -22
-12 -7 -32 -18 -76 -23 -98 -6 -22 -13 -51 -16 -65 -3 -14 -23 -38 -48 -55
l-42 -30 42 -3 41 -3 -17 -49 c-10 -27 -30 -59 -45 -71 -27 -21 -27 -21 -7
-36 19 -13 20 -17 8 -39 -7 -14 -31 -36 -53 -48 -38 -21 -44 -35 -33 -76 3
-12 -6 -15 -44 -15 -36 0 -47 -4 -47 -16 0 -24 43 -59 73 -59 15 0 27 -4 27
-9 0 -19 -23 -71 -31 -71 -5 0 -24 22 -42 48 -17 27 -45 68 -61 90 -26 38 -72
172 -59 172 3 0 18 -11 35 -25 18 -15 42 -25 61 -25 32 1 32 1 11 18 -21 18
-20 18 40 36 54 16 58 19 38 27 -13 5 -28 7 -33 3 -5 -3 -9 -1 -9 4 0 5 18 17
40 27 43 19 77 51 67 62 -4 3 -24 2 -45 -3 -29 -7 -48 -5 -87 9 -64 24 -71 31
-101 89 -27 54 -29 75 -9 101 10 15 21 17 45 12 36 -8 110 3 110 16 0 5 -14 9
-31 9 -17 0 -28 4 -24 10 3 6 14 10 24 10 9 0 30 14 47 31 l29 32 -37 -7 c-30
-5 -38 -4 -38 8 0 8 -13 17 -31 21 -20 5 -41 22 -64 53 -44 59 -46 84 -7 76
21 -4 37 2 66 25 21 17 44 31 51 31 12 0 45 31 45 43 0 4 -19 7 -43 7 -46 0
-87 30 -87 63 0 10 -8 17 -18 17 -18 0 -42 18 -42 31 0 4 9 5 20 2 11 -3 27
-2 36 1 15 6 14 9 -6 31 -13 14 -29 25 -37 25 -19 0 -16 13 7 28 24 14 26 54
5 72 -8 7 -15 24 -15 39 0 14 -7 44 -15 66 -8 22 -15 56 -15 75 -1 29 -3 31
-10 15 -5 -11 -9 -38 -9 -60 -1 -22 -10 -57 -21 -78 -11 -20 -20 -51 -20 -69
0 -17 -6 -39 -14 -47 -24 -27 -23 -55 2 -66 24 -10 29 -43 12 -75 -11 -21 -74
-46 -145 -56 -55 -8 -53 -8 -77 1 -12 5 -24 -4 -42 -31 -26 -39 -26 -57 -1
-47 8 3 26 2 40 -1 l25 -6 -22 -30 c-12 -17 -30 -30 -41 -30 -22 0 -18 -24 6
-28 26 -5 97 18 117 38 17 17 22 18 46 5 l26 -13 -48 -31 c-27 -17 -55 -31
-61 -31 -20 0 -15 -20 5 -20 15 -1 15 -2 1 -10 -9 -5 -35 -14 -59 -19 -37 -8
-52 -6 -99 14 -31 13 -58 21 -60 19 -3 -2 13 -22 34 -44 31 -31 47 -40 75 -41
19 0 43 -4 53 -8 17 -6 17 -8 -2 -25 -12 -11 -42 -21 -71 -24 -45 -4 -48 -6
-33 -18 20 -15 94 -18 121 -5 9 4 32 13 51 19 l35 12 -35 -36 -34 -36 40 17
c22 9 44 20 50 26 23 23 34 9 23 -28 -20 -74 -93 -143 -172 -164 -23 -5 -49
-12 -58 -15 -10 -3 -18 2 -21 13 -4 15 -5 15 -6 2 -1 -18 -46 -29 -121 -29
l-45 0 30 -25 c23 -19 26 -24 13 -25 -10 0 -18 -4 -18 -10 0 -5 20 -10 45 -10
25 0 45 -4 45 -10 0 -5 0 -13 0 -17 0 -5 -30 -10 -67 -13 l-67 -5 42 -28 c23
-15 42 -32 42 -37 0 -19 -61 -10 -121 20 -104 50 -124 71 -148 149 -19 64 -26
101 -18 101 2 0 18 -7 35 -16 17 -8 39 -16 49 -16 32 -2 94 13 88 21 -2 5 16
12 41 16 70 10 85 18 49 26 l-30 6 34 9 c35 10 81 58 68 70 -4 4 -31 1 -61 -6
-31 -7 -72 -10 -95 -6 -41 6 -111 35 -111 45 0 3 17 7 37 9 20 1 50 13 67 26
17 13 51 33 74 45 51 26 51 35 1 21 -74 -22 -181 6 -248 64 -23 20 -81 103
-81 116 0 10 89 10 95 0 3 -6 50 -10 103 -10 76 1 93 3 78 12 -18 10 -15 13
25 34 48 25 34 30 -38 14 -34 -8 -50 -6 -87 10 -25 10 -46 22 -46 24 0 3 14
13 30 21 37 19 70 70 70 108 0 31 -12 33 -71 16 -35 -11 -42 -9 -100 23 -34
19 -64 39 -67 46 -2 6 15 20 38 32 39 20 41 23 38 62 -3 40 -4 42 -48 52 -43
10 -45 13 -48 49 -3 40 -1 42 29 27 13 -8 25 -7 41 1 l21 12 -22 12 -23 12 26
17 c14 9 26 20 26 24 0 4 -18 15 -40 25 -22 10 -45 27 -50 38 -14 25 -40 173
-40 229 -1 69 -22 24 -25 -54 -4 -78 -50 -186 -91 -212 -16 -10 -31 -19 -33
-21 -2 -1 1 -9 8 -17 10 -11 5 -16 -26 -25 -34 -9 -30 -10 39 -7 71 3 75 2 65
-15 -6 -10 -28 -27 -49 -39 -53 -30 -50 -50 6 -50 46 0 60 -8 48 -26 -16 -25
-62 -38 -152 -44 -91 -6 -94 -7 -62 -19 30 -12 32 -15 19 -29 -9 -8 -38 -17
-66 -20 -28 -2 -51 -7 -51 -9 0 -20 27 -44 60 -53 47 -13 52 -28 10 -36 -38
-8 -58 -30 -42 -46 15 -15 140 -12 159 3 15 14 33 3 33 -20 0 -23 -54 -74
-107 -100 -61 -30 -73 -28 -73 15 0 21 -4 33 -10 29 -5 -3 -10 -21 -10 -40 0
-32 -2 -34 -45 -41 -25 -3 -56 -3 -70 0 -14 4 -25 2 -25 -3 0 -5 21 -14 48
-21 43 -11 45 -13 25 -23 -34 -15 -28 -27 13 -27 l36 0 -7 -36 c-3 -20 -12
-53 -18 -73 l-12 -36 -73 -3 c-39 -2 -72 -6 -72 -11 0 -24 93 -73 131 -69 33
4 32 -26 -1 -30 -14 -2 -29 -10 -33 -18 -9 -17 -79 -19 -108 -4 -15 8 -19 7
-19 -4 0 -18 33 -42 70 -51 23 -5 25 -11 25 -50 -1 -35 -7 -48 -27 -65 -15
-11 -28 -30 -30 -43 -2 -17 -10 -22 -32 -22 -40 0 -54 25 -30 53 10 12 24 22
31 22 23 0 24 20 2 50 -12 16 -24 40 -25 52 -1 13 -11 48 -22 78 l-19 55 -7
-45 c-3 -25 -8 -58 -10 -74 -2 -15 -9 -33 -15 -39 -6 -6 -11 -19 -11 -28 0
-23 -29 -45 -54 -41 -20 2 -20 2 -3 -12 14 -10 15 -15 5 -19 -8 -4 -5 -8 10
-13 21 -6 22 -8 7 -24 -12 -14 -13 -20 -4 -25 7 -5 19 2 30 16 10 13 19 20 19
16 0 -16 -23 -52 -53 -84 -23 -25 -27 -33 -15 -33 23 0 31 -16 19 -38 -7 -13
-23 -18 -60 -20 -28 -1 -51 2 -51 8 0 10 40 50 50 50 3 0 6 18 6 40 -1 34 -6
43 -38 65 -44 30 -57 61 -33 79 25 18 11 52 -25 65 -39 13 -38 25 3 41 81 33
127 126 48 99 -23 -8 -36 -6 -66 12 l-37 22 43 23 c58 29 103 79 117 130 18
64 15 69 -25 34 -58 -51 -108 -70 -191 -70 -82 0 -123 17 -141 57 -21 46 -15
63 24 63 35 0 47 13 21 23 -12 5 -12 11 -3 31 9 20 19 26 45 26 35 0 105 31
85 37 -7 2 -9 11 -6 19 3 8 -7 20 -25 31 -17 10 -40 34 -52 54 -11 20 -27 39
-35 43 -19 7 -19 32 0 40 23 8 19 28 -22 103 -20 37 -40 88 -44 113 -4 25 -13
68 -20 95 -12 48 -13 49 -20 20 -4 -16 -7 -57 -8 -90 -1 -44 -9 -77 -31 -123
-33 -71 -38 -91 -16 -73 12 10 15 7 14 -18 -1 -21 -13 -41 -40 -67 -33 -34
-38 -44 -38 -85 0 -43 -3 -48 -27 -57 -19 -7 -22 -11 -10 -11 10 -1 15 -5 12
-11 -8 -13 -70 -13 -113 -1 -17 5 -32 6 -32 1 0 -9 43 -39 80 -57 23 -10 20
-11 -30 -12 -54 -1 -54 -1 -30 -18 13 -10 46 -24 73 -33 l48 -16 -55 -54 c-30
-30 -54 -56 -52 -57 2 -2 15 1 30 6 21 9 26 8 26 -4 0 -28 19 -15 71 48 70 84
73 87 56 47 -44 -106 -66 -140 -141 -213 -61 -60 -74 -77 -58 -77 12 0 31 -4
44 -9 13 -5 31 -12 42 -15 29 -10 -1 -39 -33 -33 l-26 5 23 -15 c30 -21 28
-33 -11 -71 -38 -37 -53 -41 -37 -11 6 11 10 27 8 35 -2 11 -11 9 -40 -11 -44
-30 -65 -31 -97 -6 -29 22 -20 45 15 37 18 -5 22 -3 18 8 -3 8 3 17 14 20 34
11 34 33 -1 40 l-31 6 33 18 c25 12 35 25 37 45 2 22 0 26 -10 18 -8 -7 -25
-2 -55 16 -41 24 -43 27 -26 39 18 13 18 15 -2 36 -34 37 -32 52 7 58 l35 5
-52 32 c-46 28 -53 37 -54 65 0 18 -3 27 -6 21 -2 -7 -9 -13 -14 -13 -9 0 -69
78 -69 90 0 4 14 13 30 20 38 16 60 46 60 82 0 24 -4 28 -27 28 -36 0 -91 34
-102 63 -5 13 -16 29 -25 36 -25 21 -19 38 22 58 27 13 36 23 34 38 -6 38 -12
46 -45 60 -29 12 -37 23 -55 78 -12 35 -22 88 -22 119 0 68 -10 148 -19 148
-15 0 -43 -111 -50 -198 -5 -51 -15 -107 -24 -125 -9 -17 -18 -44 -21 -59 -4
-16 -20 -35 -40 -48 -36 -22 -38 -37 -9 -71 22 -27 -16 -82 -69 -100 -47 -15
-98 -54 -98 -75 0 -7 9 -18 21 -24 20 -11 20 -12 2 -32 -20 -24 -29 -24 69 3
26 7 50 10 54 7 20 -20 -134 -158 -176 -158 -19 0 -44 -13 -74 -39 -24 -21
-60 -41 -79 -45 -19 -4 -40 -13 -47 -21 -10 -12 -6 -13 23 -8 40 6 56 -9 35
-34 -11 -15 -11 -16 7 -9 68 27 137 47 143 42 15 -16 -45 -101 -105 -149 -35
-28 -63 -54 -63 -59 0 -4 19 1 43 12 23 10 53 21 67 24 14 3 51 21 84 41 69
42 77 43 46 10 -20 -21 -21 -25 -6 -25 35 0 4 -20 -32 -21 -20 0 -31 -3 -24
-6 17 -7 5 -23 -19 -23 -10 0 -19 -4 -19 -10 0 -5 7 -10 15 -10 8 0 15 -4 15
-10 0 -5 -4 -10 -10 -10 -5 0 -10 -4 -10 -10 0 -5 9 -10 20 -10 11 0 20 -4 20
-8 0 -12 -57 -52 -74 -52 -10 0 -13 -6 -10 -15 4 -8 14 -15 24 -15 10 0 32 -6
50 -14 l32 -13 -23 -17 c-14 -9 -43 -16 -71 -16 -45 0 -61 -11 -38 -25 20 -13
9 -24 -45 -44 -82 -31 -132 -26 -90 9 8 7 15 17 15 23 0 5 -8 3 -18 -6 -20
-18 -37 -23 -28 -8 3 5 -1 12 -10 15 -19 7 -15 63 6 76 11 7 7 10 -16 10 -37
0 -70 30 -52 48 8 8 8 15 -2 27 -10 12 -10 15 0 15 9 0 8 5 -3 18 -11 12 -17
37 -18 68 l-1 49 -11 -41 c-7 -23 -18 -48 -25 -57 -10 -11 -10 -16 -1 -19 9
-3 8 -10 -2 -28 -7 -14 -12 -30 -11 -37 2 -7 -6 -18 -18 -25 -11 -7 -20 -21
-20 -30 0 -10 -8 -18 -17 -18 -15 -1 -15 -3 5 -20 14 -12 18 -21 12 -25 -6 -4
-12 -5 -14 -4 -25 34 -45 69 -51 87 -6 21 -4 23 14 17 12 -4 21 -2 21 4 0 6 7
11 15 11 8 0 14 4 13 9 -2 5 6 17 17 25 19 15 19 15 -12 16 -40 0 -76 32 -71
63 2 15 10 22 25 22 13 0 23 4 22 8 0 5 8 15 18 23 16 11 16 13 2 14 -19 0
-69 37 -69 51 0 5 6 9 13 9 6 0 23 9 37 20 19 15 21 20 9 20 -9 0 -24 11 -33
25 -10 15 -12 25 -6 25 7 0 8 5 3 13 -4 6 -9 21 -10 32 -5 45 -16 85 -23 85
-11 0 -30 -107 -23 -126 8 -23 -23 -44 -63 -44 -17 0 -37 -7 -44 -15 -10 -12
-10 -15 4 -15 21 0 20 -16 -1 -29 -16 -9 -15 -10 8 -11 14 0 30 5 36 11 6 6
17 9 23 7 7 -2 -6 -16 -28 -32 -33 -22 -44 -26 -61 -17 -27 15 -36 14 -22 -3
7 -8 24 -17 39 -21 l27 -8 -30 -14 -30 -14 43 5 c26 2 40 0 36 -6 -4 -6 3 -5
15 1 30 17 27 -2 -7 -40 -24 -27 -37 -33 -85 -37 -31 -2 -57 -7 -57 -11 1 -17
20 -33 34 -28 9 4 16 2 16 -3 0 -6 -14 -10 -32 -10 -45 0 -23 -19 29 -26 30
-3 46 1 66 16 15 12 25 15 22 8 -6 -14 -70 -61 -97 -71 -12 -4 -15 -2 -11 9 3
8 -1 14 -11 14 -9 0 -16 4 -16 10 0 5 -11 12 -24 16 -30 7 -63 41 -71 74 -6
24 -4 25 40 25 36 0 51 6 73 28 l27 28 -37 -6 c-20 -4 -44 -2 -54 3 -15 9 -13
12 17 28 28 15 31 19 14 21 -54 10 -69 16 -91 40 -35 38 -30 44 25 37 41 -5
53 -3 68 11 17 18 17 18 -7 12 -14 -3 -32 -2 -40 3 -12 8 -12 11 3 28 25 27
21 42 -10 42 -16 1 -39 7 -52 14 l-24 13 21 12 c27 15 28 38 2 46 -21 7 -29
37 -9 33 20 -5 19 35 -2 50 -12 8 -19 25 -19 45 0 53 -16 64 -23 17 -3 -23
-15 -52 -26 -64 -27 -28 -26 -36 2 -36 22 0 22 0 -3 -20 l-25 -20 23 0 c12 0
22 -4 22 -9 0 -10 -34 -21 -68 -21 -12 0 -21 -6 -20 -12 2 -7 -8 -14 -21 -16
l-25 -4 25 -19 c19 -15 21 -19 7 -19 -10 0 -18 -5 -18 -11 0 -7 15 -10 40 -7
77 7 30 -48 -49 -59 -62 -8 -29 -33 44 -33 41 0 56 -4 53 -12 -7 -23 -72 -48
-123 -48 -46 -1 -49 -2 -31 -15 11 -8 29 -15 40 -15 20 0 20 0 0 -16 -18 -14
-16 -15 28 -9 27 3 53 3 59 0 16 -10 -18 -43 -52 -50 -16 -4 -31 -11 -35 -16
-9 -15 87 -9 113 7 26 17 33 17 33 4 0 -12 -37 -47 -75 -71 -45 -28 -125 -26
-153 4 l-22 23 35 -4 c21 -3 35 0 35 7 0 6 -4 11 -10 11 -5 0 -26 15 -46 32
l-37 33 5 150 c4 104 2 139 -4 115 -5 -19 -18 -63 -29 -98 -10 -34 -19 -74
-19 -87 0 -14 -10 -33 -21 -43 -12 -9 -33 -27 -48 -39 l-26 -22 44 -1 c37 0
42 -2 36 -17 -4 -10 -12 -31 -17 -48 -6 -16 -23 -40 -37 -52 -25 -20 -25 -22
-9 -40 16 -18 16 -21 -2 -51 -11 -18 -24 -32 -29 -32 -5 0 -13 20 -17 45 -5
39 -10 45 -30 45 -36 0 -38 18 -2 36 76 38 89 69 25 60 -23 -3 -55 -2 -72 2
-24 7 -31 15 -35 43 l-6 34 -7 -27 c-10 -39 -23 -35 -58 20 -38 60 -45 88 -28
119 12 22 18 24 52 19 44 -7 107 2 107 15 0 5 -15 9 -32 10 l-33 1 30 13 c17
7 41 25 55 41 l25 27 -33 -6 c-23 -5 -34 -3 -38 8 -3 7 -19 17 -35 20 -33 7
-98 86 -99 118 0 15 5 17 28 12 22 -4 37 1 67 25 21 16 43 30 50 30 12 0 45
31 45 43 0 4 -17 7 -39 7 -44 0 -91 31 -91 61 0 12 -7 19 -18 19 -17 0 -42 18
-42 30 0 3 14 5 32 5 44 0 45 19 2 46 -35 21 -36 23 -15 30 25 10 29 60 7 78
-8 7 -16 31 -19 54 -3 23 -11 69 -18 102 -11 51 -14 56 -20 35 -4 -14 -7 -43
-8 -65 -1 -22 -8 -50 -16 -62 -8 -12 -17 -40 -19 -62 -2 -22 -11 -50 -20 -63
-22 -31 -20 -59 5 -65 16 -5 19 -12 17 -42 -2 -30 -9 -39 -42 -57 -21 -12 -66
-25 -100 -29 -67 -9 -65 -9 -87 0 -10 4 -24 -6 -42 -32 -27 -38 -22 -55 13
-46 10 3 26 1 36 -5 16 -9 15 -12 -9 -36 -14 -14 -33 -26 -42 -26 -19 0 -20
-19 0 -26 24 -10 114 16 128 37 12 16 17 17 40 6 15 -6 27 -15 27 -18 0 -3
-27 -19 -59 -35 -61 -30 -75 -44 -43 -44 28 -1 -15 -22 -63 -31 -32 -6 -51 -3
-92 16 -28 13 -54 21 -57 17 -4 -3 10 -23 31 -44 29 -29 45 -38 73 -39 19 0
43 -4 53 -8 17 -6 17 -8 -2 -25 -18 -16 -44 -23 -106 -26 -18 -1 -17 -2 5 -15
35 -20 86 -18 148 4 28 11 52 17 52 15 0 -3 -15 -19 -32 -35 l-33 -31 40 17
c22 9 51 23 63 31 24 16 24 16 17 -18 -16 -78 -95 -155 -188 -183 -28 -8 -92
-18 -144 -21 l-94 -7 28 -23 c22 -18 24 -23 11 -24 -10 0 -18 -4 -18 -10 0
-13 106 -13 132 1 36 19 30 1 -9 -25 -31 -21 -49 -26 -103 -26 l-65 0 25 -20
c14 -10 44 -26 66 -35 37 -14 46 -14 85 -1 43 15 44 15 22 -4 -31 -25 -29 -29
10 -21 44 11 68 24 122 71 25 22 51 40 56 40 16 0 -32 -62 -53 -68 -10 -2 -15
-8 -12 -13 3 -5 -3 -12 -13 -16 -10 -4 -25 -16 -35 -28 -21 -27 -118 -76 -171
-85 l-41 -8 33 27 34 28 -46 12 c-31 7 -45 15 -41 24 3 8 -9 18 -30 25 -45 16
-86 50 -81 65 3 7 -2 35 -9 62 -10 36 -14 43 -15 23 -1 -35 -18 -78 -31 -78
-17 0 -42 48 -61 122 -10 39 -17 73 -16 75 2 1 22 -6 45 -17 36 -18 47 -19 93
-9 32 7 47 14 39 19 -8 5 9 11 41 15 68 9 83 18 44 26 l-30 6 34 9 c35 10 81
58 68 71 -4 4 -28 2 -52 -5 -25 -7 -59 -12 -75 -12 -32 0 -140 37 -140 48 0 4
16 8 36 9 20 1 50 13 69 27 19 14 36 26 39 26 9 0 77 42 73 46 -2 2 -20 -1
-41 -7 -60 -17 -157 3 -214 43 -40 29 -112 117 -112 137 0 11 89 11 95 1 3 -6
50 -10 103 -10 76 1 93 3 78 12 -18 10 -15 13 25 34 48 25 34 30 -36 14 -33
-7 -48 -5 -90 14 l-50 23 33 17 c39 20 72 70 72 109 0 31 -12 33 -71 16 -35
-11 -42 -9 -100 23 -34 19 -64 39 -67 46 -2 6 15 20 37 32 39 19 41 23 41 65
0 41 -2 45 -24 45 -14 0 -36 4 -50 10 -21 8 -26 16 -26 46 0 28 3 35 15 30 8
-3 21 -8 28 -11 6 -3 19 0 27 5 13 9 13 12 -3 24 -16 13 -16 14 8 30 14 9 25
20 25 24 0 4 -19 15 -41 26 -51 23 -63 50 -79 181 -6 55 -13 107 -14 115 -1 8
-8 -8 -14 -37z m10302 -786 c-24 -13 -7 -25 31 -20 41 4 47 -13 9 -28 -28 -10
-81 2 -117 26 -17 12 -15 14 15 32 25 15 38 17 55 9 18 -9 19 -12 7 -19z
m2283 -4 c22 -15 23 -17 7 -34 -10 -11 -21 -19 -25 -19 -13 0 -79 61 -79 72 0
14 67 1 97 -19z m543 -11 c0 -18 -11 -38 -30 -57 -32 -30 -34 -30 -60 12 l-17
28 41 21 c57 29 66 29 66 -4z m716 -1 c-8 -12 -39 -15 -50 -4 -3 4 4 13 16 19
24 13 45 4 34 -15z m404 19 c0 -5 -2 -10 -4 -10 -3 0 -8 5 -11 10 -3 6 -1 10
4 10 6 0 11 -4 11 -10z m-371 -32 c-17 -34 -51 -68 -66 -68 -7 0 -13 2 -13 5
0 6 82 85 88 85 1 0 -3 -10 -9 -22z m-1159 -8 c0 -5 -9 -10 -19 -10 -11 0 -23
5 -26 10 -4 6 5 10 19 10 14 0 26 -4 26 -10z m-45 -20 c14 -15 15 -23 6 -34
-14 -17 -65 -28 -97 -20 -25 6 -33 24 -11 24 6 0 26 11 42 25 37 30 38 30 60
5z m1062 14 c-3 -3 -12 -4 -19 -1 -8 3 -5 6 6 6 11 1 17 -2 13 -5z m2692 -30
c8 -7 -6 -15 -27 -17 -11 0 -18 -5 -16 -9 3 -5 27 -6 55 -3 57 5 60 -2 21 -46
-34 -38 -109 -52 -131 -25 -12 14 -11 20 10 43 l24 26 -37 -7 c-43 -8 -54 10
-13 20 13 3 29 12 35 20 10 11 64 10 79 -2z m-6254 -24 c4 -6 17 -10 31 -10
19 0 24 -5 24 -24 0 -14 -4 -27 -9 -31 -12 -7 -11 -46 1 -62 13 -16 -8 -26
-31 -14 -28 15 -88 88 -99 121 -10 27 -10 28 34 28 24 1 46 -3 49 -8z m6439
-24 l46 -24 -28 -7 c-40 -8 -82 10 -82 35 0 26 9 25 64 -4z m-6234 3 c0 -12
-42 -38 -79 -49 -29 -8 -33 -6 -41 16 -16 41 -13 44 55 43 36 -1 65 -5 65 -10z
m2010 -9 c0 -5 -4 -10 -10 -10 -5 0 -10 5 -10 10 0 6 5 10 10 10 6 0 10 -4 10
-10z m-1400 -16 c0 -8 -5 -12 -10 -9 -6 4 -8 11 -5 16 9 14 15 11 15 -7z
m-6354 -31 c-20 -40 -54 -69 -109 -93 -67 -30 -77 -24 -77 51 l0 62 43 -5 c34
-5 80 -1 150 11 4 0 1 -11 -7 -26z m9753 -10 c-5 -21 -9 -41 -9 -45 0 -11 -48
-10 -54 1 -3 5 6 12 22 16 15 4 21 9 15 12 -9 3 -8 11 3 29 24 35 33 29 23
-13z m-1816 16 l22 0 -22 -11 c-24 -12 -53 -5 -53 13 0 6 7 8 16 5 9 -3 25 -6
37 -7z m847 2 c0 -10 -49 -56 -54 -50 -5 6 -26 47 -26 52 0 3 18 5 40 5 22 0
40 -3 40 -7z m3165 -1 c3 -5 1 -10 -4 -10 -6 0 -11 5 -11 10 0 6 2 10 4 10 3
0 8 -4 11 -10z m-5045 -7 c0 -16 -53 -93 -77 -113 l-28 -21 33 4 c17 2 32 1
32 -3 0 -14 -108 -63 -124 -57 -17 7 -17 12 -6 85 0 1 9 2 20 2 11 0 20 6 20
13 0 7 18 21 40 31 22 10 48 28 58 41 16 23 32 32 32 18z m900 -1 c0 -5 -9
-17 -20 -27 -11 -10 -20 -13 -20 -7 0 7 4 12 10 12 5 0 7 7 4 15 -4 9 0 15 10
15 9 0 16 -4 16 -8z m-2165 -32 c3 -5 1 -10 -4 -10 -6 0 -11 5 -11 10 0 6 2
10 4 10 3 0 8 -4 11 -10z m3225 2 c0 -17 -76 -69 -86 -59 -8 8 51 66 69 67 9
0 17 -4 17 -8z m3157 -14 c-1 -23 -35 -72 -51 -75 -5 -1 -12 -7 -16 -14 -6 -8
-13 -2 -24 19 -21 41 -21 59 1 41 13 -11 17 -11 20 -1 3 6 11 12 19 12 9 0 13
4 9 9 -3 6 3 14 12 20 27 15 32 13 30 -11z m117 -23 c-11 -26 -19 -34 -26 -27
-7 7 -4 20 12 42 28 40 35 34 14 -15z m-13684 3 c0 -5 -7 -3 -15 6 -8 8 -15
18 -15 22 0 3 7 1 15 -6 8 -7 15 -17 15 -22z m7259 -5 c-26 -31 -50 -36 -70
-14 -19 20 -19 21 8 27 16 3 33 7 38 8 6 2 16 1 23 -2 10 -3 10 -8 1 -19z
m2803 -2 c4 -3 0 -15 -8 -25 -14 -19 -14 -19 -39 4 -14 13 -25 28 -25 33 0 9
60 0 72 -12z m3302 5 c-6 -15 -34 -31 -34 -19 0 5 30 32 37 33 1 0 0 -6 -3
-14z m-5891 -62 c16 -13 40 -24 53 -24 14 0 22 -4 19 -10 -3 -5 -18 -10 -33
-10 -25 0 -25 -1 -6 -15 18 -13 18 -14 1 -15 -45 0 -107 53 -107 93 0 23 32
15 73 -19z m-3101 -46 c-11 -30 -35 -75 -56 -102 -20 -26 -36 -51 -36 -56 0
-4 -32 -36 -71 -69 -49 -43 -78 -61 -98 -61 -39 0 -43 9 -21 38 27 34 25 45
-6 38 -17 -5 -35 -1 -51 9 l-24 16 23 19 c13 11 52 29 89 40 84 25 141 64 209
141 30 34 56 57 58 51 1 -5 -6 -34 -16 -64z m7921 31 c-5 -5 -18 -7 -28 -3
-16 6 -15 9 6 25 21 16 24 16 27 2 2 -8 0 -19 -5 -24z m-8238 10 c4 -5 -1 -19
-11 -30 -16 -18 -12 -17 37 4 70 31 119 42 119 27 0 -25 -54 -101 -93 -132
-23 -18 -45 -36 -48 -41 -7 -10 -59 9 -59 23 0 5 6 10 14 10 21 0 26 35 6 48
-18 11 -35 75 -25 92 8 13 52 13 60 -1z m-4427 -42 c2 -10 -3 -17 -12 -17 -18
0 -29 16 -21 31 9 14 29 6 33 -14z m13901 14 c8 -5 9 -11 3 -15 -5 -3 -15 1
-22 9 -14 16 -3 20 19 6z m-633 -75 c-15 -36 -36 -49 -36 -21 0 8 7 15 16 15
8 0 13 3 11 8 -3 4 0 18 5 32 6 14 12 20 15 13 2 -6 -3 -27 -11 -47z m-172 35
c3 -4 -7 -28 -23 -52 -29 -47 -28 -47 -123 -41 -33 2 -37 18 -8 27 11 4 18 10
15 15 -7 11 4 18 68 41 60 21 64 22 71 10z m-6159 -10 c7 -12 -31 -25 -45 -16
-5 3 -10 10 -10 16 0 12 47 12 55 0z m-6585 -25 c0 -3 -4 -8 -10 -11 -5 -3
-10 -1 -10 4 0 6 5 11 10 11 6 0 10 -2 10 -4z m7557 -2 c-3 -3 -12 -4 -19 -1
-8 3 -5 6 6 6 11 1 17 -2 13 -5z m3973 2 c0 -16 -44 -98 -48 -88 -2 8 1 19 7
25 6 6 11 21 11 32 0 12 3 25 7 28 7 7 23 9 23 3z m40 -6 c0 -5 -4 -10 -10
-10 -5 0 -10 5 -10 10 0 6 5 10 10 10 6 0 10 -4 10 -10z m-10060 -50 c-21 -30
-40 -46 -40 -35 0 11 44 65 53 65 4 0 -1 -13 -13 -30z m5182 12 c-18 -3 -21
-7 -12 -16 8 -10 3 -16 -20 -26 -41 -17 -38 -34 5 -27 19 3 35 3 35 -1 0 -24
-112 -54 -124 -33 -5 7 2 11 19 11 26 0 26 0 -10 31 -60 53 -48 65 65 65 36 0
55 -2 42 -4z m6148 -2 c0 -5 -5 -10 -11 -10 -5 0 -7 5 -4 10 3 6 8 10 11 10 2
0 4 -4 4 -10z m-5359 -33 c-7 -7 -15 -6 -26 3 -24 20 -18 31 10 18 17 -8 22
-15 16 -21z m-1893 -2 c7 -7 -9 -25 -23 -25 -8 0 -26 5 -42 11 -26 10 -27 12
-8 20 18 7 64 3 73 -6z m3477 -5 c-3 -5 -15 -10 -26 -10 -10 0 -19 5 -19 10 0
6 12 10 26 10 14 0 23 -4 19 -10z m-3425 -17 c0 -5 -16 -19 -34 -31 -27 -18
-39 -21 -53 -13 -16 9 -14 11 14 17 18 3 38 13 44 20 12 15 29 19 29 7z m6734
-8 c-4 -8 -10 -15 -15 -15 -4 0 -6 7 -3 15 4 8 10 15 15 15 4 0 6 -7 3 -15z
m376 -15 c0 -5 -4 -10 -10 -10 -5 0 -10 -4 -10 -10 0 -5 10 -10 23 -10 42 -1
-8 -27 -66 -34 -42 -5 -54 -3 -65 11 -16 22 -6 31 54 47 63 17 74 18 74 6z
m-15842 -26 c10 -4 -14 -34 -28 -34 -27 0 -45 27 -30 45 9 11 16 12 33 2 12
-7 23 -12 25 -13z m8522 11 c-7 -9 -15 -13 -17 -11 -7 7 7 26 19 26 6 0 6 -6
-2 -15z m105 -15 c10 -11 28 -20 39 -20 20 -1 20 -1 2 -11 -15 -9 -24 -6 -49
20 -18 17 -27 31 -21 31 6 0 19 -9 29 -20z m-3885 4 c0 -15 -42 -62 -60 -67
-28 -7 -25 2 12 40 30 31 48 41 48 27z m4754 -67 c-15 -23 -37 -49 -48 -57
-21 -14 -20 -15 9 -21 l30 -6 -27 -13 c-31 -15 -90 -7 -113 16 -21 21 -13 30
42 43 35 9 57 24 87 57 48 53 60 41 20 -19z m-3299 -6 c-7 -6 -55 21 -55 31 0
5 13 1 30 -8 16 -10 27 -20 25 -23z m3230 20 c-3 -6 -11 -11 -17 -11 -6 0 -6
6 2 15 14 17 26 13 15 -4z m-704 -1 c16 0 10 -23 -13 -47 -12 -13 -30 -23 -40
-23 -28 0 -80 29 -75 43 4 13 85 37 105 31 8 -2 18 -4 23 -4z m-1381 -25 c0
-8 3 -14 8 -12 4 1 8 -2 9 -8 1 -5 -22 -25 -52 -44 -46 -28 -60 -32 -91 -27
-36 7 -84 45 -84 66 0 7 18 9 50 7 27 -3 50 -1 52 4 2 7 50 21 101 28 4 1 7
-6 7 -14z m-1090 -28 c0 -7 -13 -21 -30 -30 -31 -19 -34 -17 -24 21 7 24 54
33 54 9z m-1630 -22 c-7 -8 -16 -12 -21 -9 -13 8 -1 24 18 24 13 0 13 -3 3
-15z m4310 11 c0 -2 -3 -11 -6 -20 -9 -23 -24 -20 -24 4 0 11 7 20 15 20 8 0
15 -2 15 -4z m-3430 -46 c-35 -44 -111 -110 -127 -110 -6 0 -16 7 -23 15 -10
12 -6 17 22 28 19 8 58 35 87 61 64 57 83 60 41 6z m-3230 20 c0 -5 -2 -10 -4
-10 -3 0 -8 5 -11 10 -3 6 -1 10 4 10 6 0 11 -4 11 -10z m-1080 -17 c0 -31
-16 -46 -39 -38 -28 8 -27 33 2 45 32 13 37 12 37 -7z m270 -13 c-23 -18 -24
-20 -4 -20 11 0 24 4 30 9 5 4 23 11 41 14 27 5 31 4 26 -10 -5 -14 1 -12 32
7 23 14 36 18 33 10 -2 -7 -32 -31 -67 -53 l-62 -40 -40 39 c-21 21 -39 41
-39 45 0 7 18 11 65 17 6 1 -1 -7 -15 -18z m4990 3 c7 -6 -23 -56 -38 -61 -14
-4 -74 56 -67 68 5 7 95 2 105 -7z m320 6 c0 -9 -17 -48 -26 -58 -5 -6 -44 30
-44 41 0 4 9 8 19 8 11 0 23 5 26 10 8 13 25 13 25 -1z m-5750 -30 c0 -5 -7
-9 -15 -9 -9 0 -15 9 -15 21 0 18 2 19 15 9 8 -7 15 -16 15 -21z m1240 21 c0
-5 -5 -10 -11 -10 -5 0 -7 5 -4 10 3 6 8 10 11 10 2 0 4 -4 4 -10z m6740 1 c0
-5 -7 -12 -16 -15 -14 -5 -15 -4 -4 9 14 17 20 19 20 6z m-7200 -23 c0 -13
-32 -6 -37 9 -3 7 3 9 16 6 12 -3 21 -10 21 -15z m4460 -8 c-20 -37 -62 -39
-84 -5 l-16 24 55 0 c49 -1 54 -3 45 -19z m2604 4 c9 -24 8 -25 -26 -22 -17 2
-33 9 -36 17 -3 9 2 11 17 6 12 -4 21 -2 21 4 0 17 17 13 24 -5z m-2329 -44
c3 -5 15 -10 26 -10 11 0 17 -4 14 -10 -11 -17 -44 -11 -55 10 -11 20 3 30 15
10z m805 -18 c0 -5 -34 -26 -76 -47 -74 -37 -77 -38 -90 -20 -8 10 -14 22 -14
26 0 4 37 16 83 27 98 24 97 24 97 14z m-2140 -12 c0 -13 -11 -13 -30 0 -12 8
-11 10 8 10 12 0 22 -4 22 -10z m1426 -13 c24 9 16 -17 -15 -48 -30 -29 -55
-37 -66 -20 -3 6 4 15 15 21 11 6 20 19 20 30 0 18 22 34 28 19 2 -4 10 -5 18
-2z m94 -18 c0 -11 -4 -17 -10 -14 -5 3 -10 13 -10 21 0 8 5 14 10 14 6 0 10
-9 10 -21z m-4277 4 c-7 -2 -13 -13 -13 -24 0 -17 -7 -19 -57 -19 -49 1 -55 2
-38 12 11 6 22 14 25 18 3 4 12 10 20 13 18 7 80 7 63 0z m3962 -52 c7 -12
-12 -24 -25 -16 -11 7 -4 25 10 25 5 0 11 -4 15 -9z m415 -31 c-8 -20 -16 -28
-22 -22 -6 6 -3 20 7 36 23 34 31 26 15 -14z m-5257 5 c-19 -26 -48 -32 -73
-15 -13 9 -13 11 0 20 8 5 22 7 30 5 8 -2 22 0 30 5 26 17 32 11 13 -15z
m4727 18 c0 -9 -52 -63 -61 -63 -4 0 -9 11 -11 25 -4 19 -1 25 13 25 10 0 21
5 24 10 7 11 35 14 35 3z m1020 -53 c-20 -13 -33 -13 -25 0 3 6 14 10 23 10
15 0 15 -2 2 -10z m-590 -26 c0 -8 -5 -12 -10 -9 -6 4 -8 11 -5 16 9 14 15 11
15 -7z m-5220 -4 c0 -5 -4 -10 -10 -10 -5 0 -10 5 -10 10 0 6 5 10 10 10 6 0
10 -4 10 -10z m5545 -19 c-5 -9 -63 -49 -120 -83 -6 -4 -17 -3 -25 2 -11 7 -9
13 13 30 15 12 25 25 22 30 -3 5 4 12 16 15 13 4 25 2 29 -5 6 -10 15 -8 37 8
28 21 40 22 28 3z m-5572 -8 c-7 -2 -19 -2 -25 0 -7 3 -2 5 12 5 14 0 19 -2
13 -5z"/>
<path d="M17969 2886 c9 -11 9 -15 -1 -18 -7 -3 -3 -7 10 -10 18 -5 22 -2 22
18 0 18 -5 24 -21 24 -17 0 -19 -3 -10 -14z"/>
<path d="M17982 2821 c-11 -7 -11 -9 2 -14 10 -4 16 -1 16 8 0 17 -1 17 -18 6z"/>
<path d="M17977 2752 c-22 -24 -21 -32 3 -32 15 0 20 7 20 25 0 30 -2 30 -23
7z"/>
</g>
</svg>
